<svg width="70" height="70" viewBox="0 0 70 70" fill="none" xmlns="http://www.w3.org/2000/svg">
<rect width="70" height="70" rx="35" fill="#29A44D"/>
<path d="M41.666 20.3333H28.3327C26.866 20.3333 25.666 21.5333 25.666 22.9999V46.9999C25.666 48.4666 26.866 49.6666 28.3327 49.6666H41.666C43.1327 49.6666 44.3327 48.4666 44.3327 46.9999V22.9999C44.3327 21.5333 43.1327 20.3333 41.666 20.3333ZM41.666 46.9999H28.3327V45.6666H41.666V46.9999ZM41.666 42.9999H28.3327V42.3599C30.2927 41.0399 32.626 40.3333 34.9993 40.3333C37.3727 40.3333 39.706 41.0399 41.666 42.3599V42.9999ZM41.666 39.2799C39.666 38.2533 37.3993 37.6666 34.9993 37.6666C32.5993 37.6666 30.3327 38.2533 28.3327 39.2799V26.9999H41.666V39.2799ZM41.666 24.3333H28.3327V22.9999H41.666V24.3333Z" fill="white"/>
<path d="M34.9993 36.3333C37.2127 36.3333 38.9993 34.5466 38.9993 32.3333C38.9993 30.1199 37.2127 28.3333 34.9993 28.3333C32.786 28.3333 30.9993 30.1199 30.9993 32.3333C30.9993 34.5466 32.786 36.3333 34.9993 36.3333ZM34.9993 30.9999C35.7327 30.9999 36.3327 31.5999 36.3327 32.3333C36.3327 33.0666 35.7327 33.6666 34.9993 33.6666C34.266 33.6666 33.666 33.0666 33.666 32.3333C33.666 31.5999 34.266 30.9999 34.9993 30.9999Z" fill="white"/>
</svg>
