<svg width="80" height="80" viewBox="0 0 80 80" fill="none" xmlns="http://www.w3.org/2000/svg">
<rect width="80" height="80" rx="40" fill="#6B91EF"/>
<path d="M52.5 42.0847H51.0833L46.9167 46.2514H50.8958L54.5833 50.418H25.4167L29.125 46.2514H33.3958L29.2292 42.0847H27.5L21.25 48.3347V56.668C21.25 58.9597 23.1042 60.8347 25.3958 60.8347H54.5833C56.875 60.8347 58.75 58.9805 58.75 56.668V48.3347L52.5 42.0847ZM54.5833 56.668H25.4167V54.5847H54.5833V56.668ZM38.625 46.293C39.4375 47.1055 40.75 47.1055 41.5625 46.293L54.8125 33.043C55.625 32.2305 55.625 30.918 54.8125 30.1055L44.5 19.793C43.7083 18.9597 42.3958 18.9597 41.5833 19.7722L28.3125 33.043C27.5 33.8555 27.5 35.168 28.3125 35.9805L38.625 46.293ZM43.0417 24.1889L50.4167 31.5639L40.1042 41.8764L32.7292 34.5014L43.0417 24.1889Z" fill="white"/>
</svg>
