<svg width="80" height="80" viewBox="0 0 80 80" fill="none" xmlns="http://www.w3.org/2000/svg">
<rect width="80" height="80" rx="40" fill="#6B91EF"/>
<path d="M54.5833 25.4167H50.4167V21.25H29.5833V25.4167H25.4167C23.125 25.4167 21.25 27.2917 21.25 29.5833V31.6667C21.25 36.9792 25.25 41.3125 30.3958 41.9583C31.7083 45.0833 34.5208 47.4375 37.9167 48.125V54.5833H29.5833V58.75H50.4167V54.5833H42.0833V48.125C45.4792 47.4375 48.2917 45.0833 49.6042 41.9583C54.75 41.3125 58.75 36.9792 58.75 31.6667V29.5833C58.75 27.2917 56.875 25.4167 54.5833 25.4167ZM25.4167 31.6667V29.5833H29.5833V37.5417C27.1667 36.6667 25.4167 34.375 25.4167 31.6667ZM40 44.1667C36.5625 44.1667 33.75 41.3542 33.75 37.9167V25.4167H46.25V37.9167C46.25 41.3542 43.4375 44.1667 40 44.1667ZM54.5833 31.6667C54.5833 34.375 52.8333 36.6667 50.4167 37.5417V29.5833H54.5833V31.6667Z" fill="white"/>
</svg>
