<svg width="46" height="46" viewBox="0 0 46 46" fill="none" xmlns="http://www.w3.org/2000/svg">
<path fill-rule="evenodd" clip-rule="evenodd" d="M23 0C29.3511 0 35.102 2.57492 39.2635 6.73648C43.4251 10.8989 46 16.6489 46 23C46 29.3511 43.4251 35.102 39.2635 39.2635C35.102 43.4251 29.3511 46 23 46C16.6489 46 10.8989 43.4251 6.73648 39.2635C2.57492 35.102 0 29.3511 0 23C0 16.6489 2.57492 10.8989 6.73648 6.73648C10.8989 2.57492 16.6489 0 23 0ZM21.0315 27.1948V27.0088C21.0459 25.7762 21.1672 24.7996 21.4044 24.0736C21.6371 23.3477 21.9722 22.7574 22.4088 22.31C22.8464 21.859 23.372 21.4493 23.9865 21.0773C24.3818 20.8258 24.7403 20.5473 25.0565 20.2355C25.3728 19.9282 25.6243 19.5698 25.8094 19.1655C25.9954 18.7648 26.0888 18.3191 26.0888 17.8259C26.0888 17.2392 25.9496 16.7316 25.6702 16.2995C25.3961 15.8709 25.0242 15.5412 24.5678 15.304C24.1069 15.0713 23.5957 14.9545 23.0323 14.9545C22.5247 14.9545 22.0414 15.0578 21.576 15.2716C21.116 15.481 20.7296 15.8107 20.4269 16.2572C20.125 16.7046 19.948 17.277 19.9013 17.9741H16.8861C16.9338 16.7873 17.2356 15.7829 17.7891 14.9599C18.347 14.1369 19.0828 13.5125 19.9947 13.0893C20.9111 12.6662 21.9255 12.4568 23.0323 12.4568C24.2515 12.4568 25.3126 12.6796 26.2236 13.1361C27.1355 13.5871 27.848 14.2196 28.3547 15.03C28.8569 15.8386 29.113 16.7792 29.113 17.8582C29.113 18.5977 28.9971 19.2634 28.7644 19.8537C28.5317 20.4448 28.2055 20.9749 27.7779 21.4358C27.3493 21.9012 26.8426 22.31 26.2479 22.664C25.6845 23.018 25.2281 23.38 24.884 23.7574C24.5354 24.1338 24.2839 24.5813 24.1257 25.0925C23.9676 25.6082 23.8787 26.2461 23.8652 27.0088V27.1948H21.0315ZM22.5301 33.5441C21.9857 33.5441 21.5203 33.3482 21.1295 32.9619C20.7395 32.5764 20.5482 32.1057 20.5482 31.5576C20.5482 31.0177 20.7386 30.5523 21.1295 30.1659C21.5203 29.7796 21.9857 29.5847 22.5301 29.5847C23.0647 29.5847 23.5292 29.7814 23.9209 30.1659C24.3153 30.5532 24.5121 31.0177 24.5121 31.5576C24.5121 31.9206 24.4177 32.2548 24.2371 32.5531C24.0557 32.8541 23.8185 33.0984 23.5211 33.2745C23.2237 33.4506 22.8931 33.5441 22.5301 33.5441Z" fill="#1A73E8"/>
</svg>
