<svg width="104" height="104" viewBox="0 0 104 104" fill="none" xmlns="http://www.w3.org/2000/svg">
<g clip-path="url(#clip0_9148_42555)">
<path d="M52 104C80.7188 104 104 80.7188 104 52C104 23.2812 80.7188 0 52 0C23.2812 0 0 23.2812 0 52C0 80.7188 23.2812 104 52 104Z" fill="#E39044"/>
<path d="M56.0755 103.841C78.42 102.109 96.8022 86.2528 102.309 65.1899L73.454 36.3347L49.2564 63.2636L58.9718 72.979L31.4082 79.1737L56.0755 103.841Z" fill="#875528"/>
<path d="M64.5284 36.3345H73.4554L60.2148 23.094V32.021C60.2146 34.4032 62.146 36.3345 64.5284 36.3345Z" fill="#398C62"/>
<path d="M61.4626 16.1777H28.6875C25.6078 16.1777 23.1113 18.6872 23.1113 21.7823V85.6843C23.1113 88.7796 25.6081 91.2888 28.6875 91.2888H73.0019C76.0815 91.2888 78.578 88.7794 78.578 85.6843V33.3804L61.4626 16.1777Z" fill="white"/>
<path d="M38.9121 45.3333H53.5788V48H38.9121V45.3333ZM38.9121 42.6667H53.5788V40H38.9121V42.6667ZM38.9121 53.3333H48.2454V50.6667H38.9121V53.3333ZM58.9254 49.16L59.8721 48.2133C60.3921 47.6933 61.2321 47.6933 61.7521 48.2133L62.6988 49.16C63.2188 49.68 63.2188 50.52 62.6988 51.04L61.7521 51.9867L58.9254 49.16ZM57.9788 50.1067L50.9121 57.1733V60H53.7388L60.8054 52.9333L57.9788 50.1067Z" fill="#FF7A00"/>
<path d="M66.8911 33.5111H78.5775L61.2441 16.1777V27.8641C61.2439 30.9828 63.7722 33.5111 66.8911 33.5111Z" fill="#F2C397"/>
<rect x="23.1113" y="72.8" width="55.4667" height="15.0222" fill="#F5AD6B"/>
<path d="M38.2244 77.355V78.378H34.9794V80.633H37.5094V81.656H34.9794V85H33.7254V77.355H38.2244ZM42.0155 85.099C41.4435 85.099 40.9265 84.9707 40.4645 84.714C40.0025 84.45 39.6395 84.0833 39.3755 83.614C39.1115 83.1373 38.9795 82.5873 38.9795 81.964C38.9795 81.348 39.1152 80.8017 39.3865 80.325C39.6579 79.8483 40.0282 79.4817 40.4975 79.225C40.9669 78.9683 41.4912 78.84 42.0705 78.84C42.6499 78.84 43.1742 78.9683 43.6435 79.225C44.1129 79.4817 44.4832 79.8483 44.7545 80.325C45.0259 80.8017 45.1615 81.348 45.1615 81.964C45.1615 82.58 45.0222 83.1263 44.7435 83.603C44.4649 84.0797 44.0835 84.45 43.5995 84.714C43.1229 84.9707 42.5949 85.099 42.0155 85.099ZM42.0155 84.01C42.3382 84.01 42.6389 83.933 42.9175 83.779C43.2035 83.625 43.4345 83.394 43.6105 83.086C43.7865 82.778 43.8745 82.404 43.8745 81.964C43.8745 81.524 43.7902 81.1537 43.6215 80.853C43.4529 80.545 43.2292 80.314 42.9505 80.16C42.6719 80.006 42.3712 79.929 42.0485 79.929C41.7259 79.929 41.4252 80.006 41.1465 80.16C40.8752 80.314 40.6589 80.545 40.4975 80.853C40.3362 81.1537 40.2555 81.524 40.2555 81.964C40.2555 82.6167 40.4205 83.1227 40.7505 83.482C41.0879 83.834 41.5095 84.01 42.0155 84.01ZM47.6552 79.819C47.8385 79.511 48.0805 79.2727 48.3812 79.104C48.6892 78.928 49.0522 78.84 49.4702 78.84V80.138H49.1512C48.6598 80.138 48.2858 80.2627 48.0292 80.512C47.7798 80.7613 47.6552 81.194 47.6552 81.81V85H46.4012V78.939H47.6552V79.819ZM57.9599 78.84C58.4365 78.84 58.8619 78.939 59.2359 79.137C59.6172 79.335 59.9142 79.6283 60.1269 80.017C60.3469 80.4057 60.4569 80.875 60.4569 81.425V85H59.2139V81.612C59.2139 81.0693 59.0782 80.655 58.8069 80.369C58.5355 80.0757 58.1652 79.929 57.6959 79.929C57.2265 79.929 56.8525 80.0757 56.5739 80.369C56.3025 80.655 56.1669 81.0693 56.1669 81.612V85H54.9239V81.612C54.9239 81.0693 54.7882 80.655 54.5169 80.369C54.2455 80.0757 53.8752 79.929 53.4059 79.929C52.9365 79.929 52.5625 80.0757 52.2839 80.369C52.0125 80.655 51.8769 81.0693 51.8769 81.612V85H50.6229V78.939H51.8769V79.632C52.0822 79.3827 52.3425 79.1883 52.6579 79.049C52.9732 78.9097 53.3105 78.84 53.6699 78.84C54.1539 78.84 54.5865 78.9427 54.9679 79.148C55.3492 79.3533 55.6425 79.6503 55.8479 80.039C56.0312 79.6723 56.3172 79.3827 56.7059 79.17C57.0945 78.95 57.5125 78.84 57.9599 78.84ZM66.098 80.809C65.3353 80.4277 64.954 79.8263 64.954 79.005C64.954 78.609 65.053 78.246 65.251 77.916C65.449 77.586 65.746 77.3257 66.142 77.135C66.538 76.937 67.022 76.838 67.594 76.838C68.1586 76.838 68.639 76.937 69.035 77.135C69.4383 77.3257 69.739 77.586 69.937 77.916C70.135 78.246 70.234 78.609 70.234 79.005C70.234 79.4157 70.1276 79.7787 69.915 80.094C69.7096 80.402 69.4346 80.6403 69.09 80.809C69.508 80.963 69.838 81.216 70.08 81.568C70.322 81.9127 70.443 82.3197 70.443 82.789C70.443 83.2657 70.322 83.6873 70.08 84.054C69.838 84.4207 69.5006 84.703 69.068 84.901C68.6353 85.099 68.144 85.198 67.594 85.198C67.044 85.198 66.5526 85.099 66.12 84.901C65.6946 84.703 65.361 84.4207 65.119 84.054C64.877 83.6873 64.756 83.2657 64.756 82.789C64.756 82.3123 64.877 81.9017 65.119 81.557C65.361 81.2123 65.6873 80.963 66.098 80.809ZM69.035 79.159C69.035 78.7483 68.9066 78.433 68.65 78.213C68.3933 77.993 68.0413 77.883 67.594 77.883C67.154 77.883 66.8056 77.993 66.549 78.213C66.2923 78.433 66.164 78.752 66.164 79.17C66.164 79.5367 66.296 79.8373 66.56 80.072C66.8313 80.2993 67.176 80.413 67.594 80.413C68.012 80.413 68.3566 80.2957 68.628 80.061C68.8993 79.8263 69.035 79.5257 69.035 79.159ZM67.594 81.359C67.11 81.359 66.714 81.48 66.406 81.722C66.1053 81.9567 65.955 82.2977 65.955 82.745C65.955 83.163 66.1016 83.504 66.395 83.768C66.6883 84.0247 67.088 84.153 67.594 84.153C68.0926 84.153 68.485 84.021 68.771 83.757C69.0643 83.493 69.211 83.1557 69.211 82.745C69.211 82.305 69.0606 81.964 68.76 81.722C68.4666 81.48 68.078 81.359 67.594 81.359Z" fill="white"/>
</g>
<defs>
<clipPath id="clip0_9148_42555">
<rect width="104" height="104" fill="white"/>
</clipPath>
</defs>
</svg>
