<svg width="103" height="104" viewBox="0 0 103 104" fill="none" xmlns="http://www.w3.org/2000/svg">
<g clip-path="url(#clip0_9148_42445)">
<path d="M51.5 103.413C79.9427 103.413 103 80.4702 103 52.1691C103 23.8679 79.9427 0.925293 51.5 0.925293C23.0573 0.925293 0 23.8679 0 52.1691C0 80.4702 23.0573 103.413 51.5 103.413Z" fill="#CC4242"/>
<path d="M55.5375 103.256C77.6672 101.549 95.8727 85.9238 101.327 65.1672L72.749 36.7317L48.784 63.269L58.406 72.8431L31.1074 78.9477L55.5375 103.256Z" fill="#7A2626"/>
<path d="M63.9069 36.7313H72.748L59.6348 23.6833V32.4805C59.6346 34.8281 61.5473 36.7313 63.9069 36.7313Z" fill="#398C62"/>
<path d="M60.8712 16.8679H28.4112C25.3612 16.8679 22.8887 19.3409 22.8887 22.391V85.3637C22.8887 88.414 25.3614 90.8867 28.4112 90.8867H72.2995C75.3495 90.8867 77.822 88.4137 77.822 85.3637V33.8204L60.8712 16.8679Z" fill="white"/>
<path d="M66.2489 33.9492H77.8229L60.6563 16.8679V28.3844C60.656 31.4576 63.16 33.9492 66.2489 33.9492Z" fill="#CC8A8A"/>
<rect x="22.6602" y="72.6667" width="55.62" height="14.3483" fill="#CC8A8A"/>
<path d="M32.808 77.66V78.776H29.268V81.236H32.028V82.352H29.268V86H27.9V77.66H32.808ZM36.9438 86.108C36.3198 86.108 35.7558 85.968 35.2518 85.688C34.7478 85.4 34.3518 85 34.0638 84.488C33.7758 83.968 33.6318 83.368 33.6318 82.688C33.6318 82.016 33.7798 81.42 34.0758 80.9C34.3718 80.38 34.7758 79.98 35.2878 79.7C35.7998 79.42 36.3718 79.28 37.0038 79.28C37.6358 79.28 38.2078 79.42 38.7198 79.7C39.2318 79.98 39.6358 80.38 39.9318 80.9C40.2278 81.42 40.3758 82.016 40.3758 82.688C40.3758 83.36 40.2238 83.956 39.9198 84.476C39.6158 84.996 39.1998 85.4 38.6718 85.688C38.1518 85.968 37.5758 86.108 36.9438 86.108ZM36.9438 84.92C37.2958 84.92 37.6238 84.836 37.9278 84.668C38.2398 84.5 38.4918 84.248 38.6838 83.912C38.8758 83.576 38.9718 83.168 38.9718 82.688C38.9718 82.208 38.8798 81.804 38.6958 81.476C38.5118 81.14 38.2678 80.888 37.9638 80.72C37.6598 80.552 37.3318 80.468 36.9798 80.468C36.6278 80.468 36.2998 80.552 35.9958 80.72C35.6998 80.888 35.4638 81.14 35.2878 81.476C35.1118 81.804 35.0238 82.208 35.0238 82.688C35.0238 83.4 35.2038 83.952 35.5638 84.344C35.9318 84.728 36.3918 84.92 36.9438 84.92ZM43.0961 80.348C43.2961 80.012 43.5601 79.752 43.8881 79.568C44.2241 79.376 44.6201 79.28 45.0761 79.28V80.696H44.7281C44.1921 80.696 43.7841 80.832 43.5041 81.104C43.2321 81.376 43.0961 81.848 43.0961 82.52V86H41.7281V79.388H43.0961V80.348ZM54.3376 79.28C54.8576 79.28 55.3216 79.388 55.7296 79.604C56.1456 79.82 56.4696 80.14 56.7016 80.564C56.9416 80.988 57.0616 81.5 57.0616 82.1V86H55.7056V82.304C55.7056 81.712 55.5576 81.26 55.2616 80.948C54.9656 80.628 54.5616 80.468 54.0496 80.468C53.5376 80.468 53.1296 80.628 52.8256 80.948C52.5296 81.26 52.3816 81.712 52.3816 82.304V86H51.0256V82.304C51.0256 81.712 50.8776 81.26 50.5816 80.948C50.2856 80.628 49.8816 80.468 49.3696 80.468C48.8576 80.468 48.4496 80.628 48.1456 80.948C47.8496 81.26 47.7016 81.712 47.7016 82.304V86H46.3336V79.388H47.7016V80.144C47.9256 79.872 48.2096 79.66 48.5536 79.508C48.8976 79.356 49.2656 79.28 49.6576 79.28C50.1856 79.28 50.6576 79.392 51.0736 79.616C51.4896 79.84 51.8096 80.164 52.0336 80.588C52.2336 80.188 52.5456 79.872 52.9696 79.64C53.3936 79.4 53.8496 79.28 54.3376 79.28ZM67.2835 78.308L63.9475 86H62.5675L65.9395 78.452H61.4995V77.288H67.2835V78.308Z" fill="white"/>
<path d="M52 44.5919C52 41.6452 49.6133 39.2585 46.6667 39.2585C43.72 39.2585 41.3333 41.6452 41.3333 44.5919C41.3333 47.5385 43.72 49.9252 46.6667 49.9252C49.6133 49.9252 52 47.5385 52 44.5919ZM49.3333 44.5919C49.3333 46.0585 48.1333 47.2585 46.6667 47.2585C45.2 47.2585 44 46.0585 44 44.5919C44 43.1252 45.2 41.9252 46.6667 41.9252C48.1333 41.9252 49.3333 43.1252 49.3333 44.5919Z" fill="#D34646"/>
<path d="M36 57.9252V60.5919H57.3333V57.9252C57.3333 54.3785 50.2267 52.5919 46.6667 52.5919C43.1067 52.5919 36 54.3785 36 57.9252ZM38.6667 57.9252C38.9333 56.9785 43.0667 55.2585 46.6667 55.2585C50.2533 55.2585 54.36 56.9652 54.6667 57.9252H38.6667Z" fill="#D34646"/>
<path d="M64 47.2585H56V49.9252H64V47.2585Z" fill="#D34646"/>
</g>
<defs>
<clipPath id="clip0_9148_42445">
<rect width="103" height="102.488" fill="white" transform="translate(0 0.925293)"/>
</clipPath>
</defs>
</svg>
