<svg width="104" height="104" viewBox="0 0 104 104" fill="none" xmlns="http://www.w3.org/2000/svg">
<g clip-path="url(#clip0_9148_42424)">
<path d="M52 104C80.7188 104 104 80.7188 104 52C104 23.2812 80.7188 0 52 0C23.2812 0 0 23.2812 0 52C0 80.7188 23.2812 104 52 104Z" fill="#31C278"/>
<path d="M56.0755 103.841C78.42 102.109 96.8022 86.2528 102.309 65.1899L73.454 36.3347L49.2564 63.2636L58.9718 72.979L31.4082 79.1737L56.0755 103.841Z" fill="#107742"/>
<path d="M64.5284 36.3345H73.4554L60.2148 23.094V32.021C60.2146 34.4032 62.146 36.3345 64.5284 36.3345Z" fill="#398C62"/>
<path d="M61.4626 16.1777H28.6875C25.6078 16.1777 23.1113 18.6872 23.1113 21.7823V85.6843C23.1113 88.7796 25.6081 91.2888 28.6875 91.2888H73.0019C76.0815 91.2888 78.578 88.7794 78.578 85.6843V33.3804L61.4626 16.1777Z" fill="white"/>
<path d="M66.893 33.5111H78.5794L61.2461 16.1777V27.8641C61.2458 30.9828 63.7741 33.5111 66.893 33.5111Z" fill="#398C62"/>
<path d="M65.3487 42.6139V38.1159H62.35V42.6139H57.852V45.6125H62.35V50.1105H65.3487V45.6125H69.8467V42.6139H65.3487ZM48.856 47.1119C52.1695 47.1119 54.8533 44.4281 54.8533 41.1145C54.8533 37.801 52.1695 35.1172 48.856 35.1172C45.5425 35.1172 42.8587 37.801 42.8587 41.1145C42.8587 44.4281 45.5425 47.1119 48.856 47.1119ZM48.856 38.1159C50.5053 38.1159 51.8547 39.4653 51.8547 41.1145C51.8547 42.7638 50.5053 44.1132 48.856 44.1132C47.2067 44.1132 45.8573 42.7638 45.8573 41.1145C45.8573 39.4653 47.2067 38.1159 48.856 38.1159ZM58.4368 50.9502C55.9179 49.6607 52.6493 48.6112 48.856 48.6112C45.0627 48.6112 41.7941 49.6607 39.2753 50.9502C37.7759 51.7148 36.8613 53.2591 36.8613 54.9384V59.1065H60.8507V54.9384C60.8507 53.2591 59.9361 51.7148 58.4368 50.9502ZM57.852 56.1079H39.86V54.9384C39.86 54.3686 40.1599 53.8589 40.6397 53.619C42.4239 52.7044 45.3026 51.6099 48.856 51.6099C52.4094 51.6099 55.2882 52.7044 57.0724 53.619C57.5521 53.8589 57.852 54.3686 57.852 54.9384V56.1079Z" fill="#107742"/>
<rect x="22.8809" y="72.7998" width="56.16" height="14.56" fill="#5C846F"/>
<path d="M35.808 75.66V76.776H32.268V79.236H35.028V80.352H32.268V84H30.9V75.66H35.808ZM39.9438 84.108C39.3198 84.108 38.7558 83.968 38.2518 83.688C37.7478 83.4 37.3518 83 37.0638 82.488C36.7758 81.968 36.6318 81.368 36.6318 80.688C36.6318 80.016 36.7798 79.42 37.0758 78.9C37.3718 78.38 37.7758 77.98 38.2878 77.7C38.7998 77.42 39.3718 77.28 40.0038 77.28C40.6358 77.28 41.2078 77.42 41.7198 77.7C42.2318 77.98 42.6358 78.38 42.9318 78.9C43.2278 79.42 43.3758 80.016 43.3758 80.688C43.3758 81.36 43.2238 81.956 42.9198 82.476C42.6158 82.996 42.1998 83.4 41.6718 83.688C41.1518 83.968 40.5758 84.108 39.9438 84.108ZM39.9438 82.92C40.2958 82.92 40.6238 82.836 40.9278 82.668C41.2398 82.5 41.4918 82.248 41.6838 81.912C41.8758 81.576 41.9718 81.168 41.9718 80.688C41.9718 80.208 41.8798 79.804 41.6958 79.476C41.5118 79.14 41.2678 78.888 40.9638 78.72C40.6598 78.552 40.3318 78.468 39.9798 78.468C39.6278 78.468 39.2998 78.552 38.9958 78.72C38.6998 78.888 38.4638 79.14 38.2878 79.476C38.1118 79.804 38.0238 80.208 38.0238 80.688C38.0238 81.4 38.2038 81.952 38.5638 82.344C38.9318 82.728 39.3918 82.92 39.9438 82.92ZM46.0961 78.348C46.2961 78.012 46.5601 77.752 46.8881 77.568C47.2241 77.376 47.6201 77.28 48.0761 77.28V78.696H47.7281C47.1921 78.696 46.7841 78.832 46.5041 79.104C46.2321 79.376 46.0961 79.848 46.0961 80.52V84H44.7281V77.388H46.0961V78.348ZM57.3376 77.28C57.8576 77.28 58.3216 77.388 58.7296 77.604C59.1456 77.82 59.4696 78.14 59.7016 78.564C59.9416 78.988 60.0616 79.5 60.0616 80.1V84H58.7056V80.304C58.7056 79.712 58.5576 79.26 58.2616 78.948C57.9656 78.628 57.5616 78.468 57.0496 78.468C56.5376 78.468 56.1296 78.628 55.8256 78.948C55.5296 79.26 55.3816 79.712 55.3816 80.304V84H54.0256V80.304C54.0256 79.712 53.8776 79.26 53.5816 78.948C53.2856 78.628 52.8816 78.468 52.3696 78.468C51.8576 78.468 51.4496 78.628 51.1456 78.948C50.8496 79.26 50.7016 79.712 50.7016 80.304V84H49.3336V77.388H50.7016V78.144C50.9256 77.872 51.2096 77.66 51.5536 77.508C51.8976 77.356 52.2656 77.28 52.6576 77.28C53.1856 77.28 53.6576 77.392 54.0736 77.616C54.4896 77.84 54.8096 78.164 55.0336 78.588C55.2336 78.188 55.5456 77.872 55.9696 77.64C56.3936 77.4 56.8496 77.28 57.3376 77.28ZM69.4435 77.28C69.3555 76.912 69.1955 76.636 68.9635 76.452C68.7315 76.268 68.4075 76.176 67.9915 76.176C67.3595 76.176 66.8875 76.42 66.5755 76.908C66.2635 77.388 66.0995 78.188 66.0835 79.308C66.2915 78.956 66.5955 78.684 66.9955 78.492C67.3955 78.3 67.8275 78.204 68.2915 78.204C68.8195 78.204 69.2835 78.32 69.6835 78.552C70.0915 78.776 70.4075 79.104 70.6315 79.536C70.8635 79.968 70.9795 80.484 70.9795 81.084C70.9795 81.644 70.8675 82.144 70.6435 82.584C70.4275 83.024 70.1035 83.372 69.6715 83.628C69.2395 83.876 68.7195 84 68.1115 84C67.2875 84 66.6395 83.82 66.1675 83.46C65.7035 83.092 65.3755 82.576 65.1835 81.912C64.9995 81.248 64.9075 80.42 64.9075 79.428C64.9075 76.5 65.9395 75.036 68.0035 75.036C68.8035 75.036 69.4315 75.252 69.8875 75.684C70.3515 76.116 70.6235 76.648 70.7035 77.28H69.4435ZM67.9915 79.356C67.5035 79.356 67.0875 79.504 66.7435 79.8C66.4075 80.088 66.2395 80.508 66.2395 81.06C66.2395 81.612 66.3955 82.052 66.7075 82.38C67.0275 82.7 67.4715 82.86 68.0395 82.86C68.5435 82.86 68.9395 82.704 69.2275 82.392C69.5235 82.08 69.6715 81.664 69.6715 81.144C69.6715 80.6 69.5275 80.168 69.2395 79.848C68.9595 79.52 68.5435 79.356 67.9915 79.356Z" fill="white"/>
</g>
<defs>
<clipPath id="clip0_9148_42424">
<rect width="104" height="104" fill="white"/>
</clipPath>
</defs>
</svg>
