<svg width="104" height="104" viewBox="0 0 104 104" fill="none" xmlns="http://www.w3.org/2000/svg">
<g clip-path="url(#clip0_9148_42532)">
<path d="M52 104C80.7188 104 104 80.7188 104 52C104 23.2812 80.7188 0 52 0C23.2812 0 0 23.2812 0 52C0 80.7188 23.2812 104 52 104Z" fill="#6B91EF"/>
<path d="M56.0755 103.841C78.42 102.109 96.8022 86.2528 102.309 65.1899L73.454 36.3347L49.2564 63.2636L58.9718 72.979L31.4082 79.1737L56.0755 103.841Z" fill="#254289"/>
<path d="M64.5284 36.3345H73.4554L60.2148 23.094V32.021C60.2146 34.4032 62.146 36.3345 64.5284 36.3345Z" fill="#398C62"/>
<path d="M61.4626 16.1777H28.6875C25.6078 16.1777 23.1113 18.6872 23.1113 21.7823V85.6843C23.1113 88.7796 25.6081 91.2888 28.6875 91.2888H73.0019C76.0815 91.2888 78.578 88.7794 78.578 85.6843V33.3804L61.4626 16.1777Z" fill="white"/>
<path d="M66.893 33.5111H78.5794L61.2461 16.1777V27.8641C61.2458 30.9828 63.7741 33.5111 66.893 33.5111Z" fill="#8B97B6"/>
<path fill-rule="evenodd" clip-rule="evenodd" d="M45.4414 47.3778C45.4414 40.9992 50.6182 35.8223 56.9969 35.8223C63.3756 35.8223 68.5525 40.9992 68.5525 47.3778C68.5525 53.7565 63.3756 58.9334 56.9969 58.9334C50.6182 58.9334 45.4414 53.7565 45.4414 47.3778ZM47.9951 45.3209C47.8449 45.9796 47.7525 46.6729 47.7525 47.3778C47.7525 52.0809 51.2885 55.9636 55.8298 56.5414V54.3111C54.5587 54.3111 53.5187 53.2711 53.5187 52V50.8445L47.9951 45.3209ZM61.6076 52C62.6476 52 63.5027 52.6818 63.8031 53.6178C65.3054 51.9769 66.2414 49.7814 66.2414 47.3778C66.2414 43.5067 63.8378 40.1787 60.452 38.8152V39.2889C60.452 40.56 59.412 41.6 58.1409 41.6H55.8298V43.9112C55.8298 44.5467 55.3098 45.0667 54.6742 45.0667H52.3631V47.3778H59.2965C59.932 47.3778 60.452 47.8978 60.452 48.5334V52H61.6076ZM38.4963 53.2713V48.8945H42.8734V45.9766H38.4963V41.5998H35.5783V45.9766H31.2012V48.8945H35.5783V53.2713H38.4963Z" fill="#6884C8"/>
<rect x="22.8809" y="72.7998" width="56.16" height="14.56" fill="#535B6D"/>
<path d="M30.0756 75.1488V76.2648H26.5356V78.7248H29.2956V79.8408H26.5356V83.4888H25.1676V75.1488H30.0756ZM34.2114 83.5968C33.5874 83.5968 33.0234 83.4568 32.5194 83.1768C32.0154 82.8888 31.6194 82.4888 31.3314 81.9768C31.0434 81.4568 30.8994 80.8568 30.8994 80.1768C30.8994 79.5048 31.0474 78.9088 31.3434 78.3888C31.6394 77.8688 32.0434 77.4688 32.5554 77.1888C33.0674 76.9088 33.6394 76.7688 34.2714 76.7688C34.9034 76.7688 35.4754 76.9088 35.9874 77.1888C36.4994 77.4688 36.9034 77.8688 37.1994 78.3888C37.4954 78.9088 37.6434 79.5048 37.6434 80.1768C37.6434 80.8488 37.4914 81.4448 37.1874 81.9648C36.8834 82.4848 36.4674 82.8888 35.9394 83.1768C35.4194 83.4568 34.8434 83.5968 34.2114 83.5968ZM34.2114 82.4088C34.5634 82.4088 34.8914 82.3248 35.1954 82.1568C35.5074 81.9888 35.7594 81.7368 35.9514 81.4008C36.1434 81.0648 36.2394 80.6568 36.2394 80.1768C36.2394 79.6968 36.1474 79.2928 35.9634 78.9648C35.7794 78.6288 35.5354 78.3768 35.2314 78.2088C34.9274 78.0408 34.5994 77.9568 34.2474 77.9568C33.8954 77.9568 33.5674 78.0408 33.2634 78.2088C32.9674 78.3768 32.7314 78.6288 32.5554 78.9648C32.3794 79.2928 32.2914 79.6968 32.2914 80.1768C32.2914 80.8888 32.4714 81.4408 32.8314 81.8328C33.1994 82.2168 33.6594 82.4088 34.2114 82.4088ZM40.3637 77.8368C40.5637 77.5008 40.8277 77.2408 41.1557 77.0568C41.4917 76.8648 41.8877 76.7688 42.3437 76.7688V78.1848H41.9957C41.4597 78.1848 41.0517 78.3208 40.7717 78.5928C40.4997 78.8648 40.3637 79.3368 40.3637 80.0088V83.4888H38.9957V76.8768H40.3637V77.8368ZM51.6052 76.7688C52.1252 76.7688 52.5892 76.8768 52.9972 77.0928C53.4132 77.3088 53.7372 77.6288 53.9692 78.0528C54.2092 78.4768 54.3292 78.9888 54.3292 79.5888V83.4888H52.9732V79.7928C52.9732 79.2008 52.8252 78.7488 52.5292 78.4368C52.2332 78.1168 51.8292 77.9568 51.3172 77.9568C50.8052 77.9568 50.3972 78.1168 50.0932 78.4368C49.7972 78.7488 49.6492 79.2008 49.6492 79.7928V83.4888H48.2932V79.7928C48.2932 79.2008 48.1452 78.7488 47.8492 78.4368C47.5532 78.1168 47.1492 77.9568 46.6372 77.9568C46.1252 77.9568 45.7172 78.1168 45.4132 78.4368C45.1172 78.7488 44.9692 79.2008 44.9692 79.7928V83.4888H43.6012V76.8768H44.9692V77.6328C45.1932 77.3608 45.4772 77.1488 45.8212 76.9968C46.1652 76.8448 46.5332 76.7688 46.9252 76.7688C47.4532 76.7688 47.9252 76.8808 48.3412 77.1048C48.7572 77.3288 49.0772 77.6528 49.3012 78.0768C49.5012 77.6768 49.8132 77.3608 50.2372 77.1288C50.6612 76.8888 51.1172 76.7688 51.6052 76.7688ZM63.7111 76.7688C63.6231 76.4008 63.4631 76.1248 63.2311 75.9408C62.9991 75.7568 62.6751 75.6648 62.2591 75.6648C61.6271 75.6648 61.1551 75.9088 60.8431 76.3968C60.5311 76.8768 60.3671 77.6768 60.3511 78.7968C60.5591 78.4448 60.8631 78.1728 61.2631 77.9808C61.6631 77.7888 62.0951 77.6928 62.5591 77.6928C63.0871 77.6928 63.5511 77.8088 63.9511 78.0408C64.3591 78.2648 64.6751 78.5928 64.8991 79.0248C65.1311 79.4568 65.2471 79.9728 65.2471 80.5728C65.2471 81.1328 65.1351 81.6328 64.9111 82.0728C64.6951 82.5128 64.3711 82.8608 63.9391 83.1168C63.5071 83.3648 62.9871 83.4888 62.3791 83.4888C61.5551 83.4888 60.9071 83.3088 60.4351 82.9488C59.9711 82.5808 59.6431 82.0648 59.4511 81.4008C59.2671 80.7368 59.1751 79.9088 59.1751 78.9168C59.1751 75.9888 60.2071 74.5248 62.2711 74.5248C63.0711 74.5248 63.6991 74.7408 64.1551 75.1728C64.6191 75.6048 64.8911 76.1368 64.9711 76.7688H63.7111ZM62.2591 78.8448C61.7711 78.8448 61.3551 78.9928 61.0111 79.2888C60.6751 79.5768 60.5071 79.9968 60.5071 80.5488C60.5071 81.1008 60.6631 81.5408 60.9751 81.8688C61.2951 82.1888 61.7391 82.3488 62.3071 82.3488C62.8111 82.3488 63.2071 82.1928 63.4951 81.8808C63.7911 81.5688 63.9391 81.1528 63.9391 80.6328C63.9391 80.0888 63.7951 79.6568 63.5071 79.3368C63.2271 79.0088 62.8111 78.8448 62.2591 78.8448ZM71.9143 81.7848H68.4223L67.8223 83.4888H66.3943L69.3823 75.1368H70.9663L73.9543 83.4888H72.5143L71.9143 81.7848ZM71.5303 80.6688L70.1743 76.7928L68.8063 80.6688H71.5303Z" fill="white"/>
</g>
<defs>
<clipPath id="clip0_9148_42532">
<rect width="104" height="104" fill="white"/>
</clipPath>
</defs>
</svg>
