<svg width="28" height="28" viewBox="0 0 28 28" fill="none" xmlns="http://www.w3.org/2000/svg">
<path d="M9.33459 14C9.33459 11.4228 11.4234 9.33296 14.0008 9.33296C16.5781 9.33296 18.6681 11.4228 18.6681 14C18.6681 16.5772 16.5781 18.667 14.0008 18.667C11.4234 18.667 9.33459 16.5772 9.33459 14ZM6.81154 14C6.81154 17.9704 10.0301 21.1888 14.0008 21.1888C17.9714 21.1888 21.19 17.9704 21.19 14C21.19 10.0296 17.9714 6.81117 14.0008 6.81117C10.0301 6.81117 6.81154 10.0296 6.81154 14ZM19.7945 6.52613C19.7944 6.8584 19.8928 7.18325 20.0773 7.4596C20.2618 7.73595 20.5241 7.95138 20.831 8.07866C21.138 8.20594 21.4758 8.23934 21.8017 8.17465C22.1276 8.10996 22.4271 7.95007 22.6621 7.71521C22.8972 7.48036 23.0573 7.18107 23.1223 6.85521C23.1872 6.52935 23.1541 6.19154 23.0271 5.88451C22.9 5.57748 22.6848 5.31502 22.4086 5.1303C22.1324 4.94559 21.8076 4.84693 21.4753 4.8468H21.4746C21.0292 4.84701 20.6021 5.02398 20.2871 5.33885C19.972 5.65372 19.7949 6.08074 19.7945 6.52613ZM8.34446 25.3957C6.97944 25.3335 6.23751 25.1061 5.74446 24.9141C5.09079 24.6596 4.6244 24.3565 4.13403 23.8669C3.64367 23.3772 3.34013 22.9113 3.08678 22.2576C2.89457 21.7648 2.6672 21.0227 2.60515 19.6578C2.53727 18.1821 2.52372 17.7388 2.52372 14.0001C2.52372 10.2614 2.53839 9.81938 2.60515 8.34243C2.66731 6.97749 2.89637 6.23683 3.08678 5.74258C3.34125 5.08894 3.64434 4.62258 4.13403 4.13224C4.62372 3.6419 5.08967 3.33838 5.74446 3.08504C6.23729 2.89285 6.97944 2.66549 8.34446 2.60344C9.82025 2.53557 10.2636 2.52202 14.0008 2.52202C17.738 2.52202 18.1817 2.53669 19.6588 2.60344C21.0238 2.6656 21.7645 2.89464 22.2588 3.08504C22.9124 3.33838 23.3788 3.64258 23.8692 4.13224C24.3595 4.6219 24.662 5.08894 24.9164 5.74258C25.1086 6.23538 25.336 6.97749 25.3981 8.34243C25.4659 9.81938 25.4795 10.2614 25.4795 14.0001C25.4795 17.7388 25.4659 18.1808 25.3981 19.6578C25.3359 21.0227 25.1074 21.7646 24.9164 22.2576C24.662 22.9113 24.3589 23.3776 23.8692 23.8669C23.3795 24.3561 22.9124 24.6596 22.2588 24.9141C21.7659 25.1063 21.0238 25.3336 19.6588 25.3957C18.183 25.4635 17.7396 25.4771 14.0008 25.4771C10.2619 25.4771 9.8198 25.4635 8.34446 25.3957ZM8.22853 0.084784C6.73807 0.152656 5.71959 0.388976 4.83015 0.735056C3.90901 1.09245 3.12923 1.57192 2.35 2.34987C1.57077 3.12782 1.09251 3.9088 0.735096 4.82989C0.388997 5.71984 0.152664 6.7377 0.0847886 8.22808C0.0157929 9.72082 0 10.198 0 14C0 17.802 0.0157929 18.2792 0.0847886 19.7719C0.152664 21.2624 0.388997 22.2802 0.735096 23.1701C1.09251 24.0906 1.57089 24.8725 2.35 25.6501C3.12912 26.4277 3.90901 26.9065 4.83015 27.2649C5.72127 27.611 6.73807 27.8473 8.22853 27.9152C9.72213 27.9831 10.1986 28 14.0008 28C17.8029 28 18.2802 27.9842 19.773 27.9152C21.2636 27.8473 22.2814 27.611 23.1714 27.2649C24.092 26.9065 24.8723 26.4281 25.6515 25.6501C26.4308 24.8722 26.908 24.0906 27.2664 23.1701C27.6125 22.2802 27.85 21.2623 27.9167 19.7719C27.9846 18.2781 28.0004 17.802 28.0004 14C28.0004 10.198 27.9846 9.72082 27.9167 8.22808C27.8489 6.73758 27.6125 5.71928 27.2664 4.82989C26.908 3.90936 26.4295 3.12906 25.6515 2.34987C24.8735 1.57069 24.092 1.09245 23.1725 0.735056C22.2814 0.388976 21.2635 0.151536 19.7741 0.084784C18.2813 0.016912 17.804 0 14.0019 0C10.1997 0 9.72213 0.015792 8.22853 0.084784Z" fill="url(#paint0_radial_19057_24766)"/>
<path d="M9.33459 14C9.33459 11.4228 11.4234 9.33296 14.0008 9.33296C16.5781 9.33296 18.6681 11.4228 18.6681 14C18.6681 16.5772 16.5781 18.667 14.0008 18.667C11.4234 18.667 9.33459 16.5772 9.33459 14ZM6.81154 14C6.81154 17.9704 10.0301 21.1888 14.0008 21.1888C17.9714 21.1888 21.19 17.9704 21.19 14C21.19 10.0296 17.9714 6.81117 14.0008 6.81117C10.0301 6.81117 6.81154 10.0296 6.81154 14ZM19.7945 6.52613C19.7944 6.8584 19.8928 7.18325 20.0773 7.4596C20.2618 7.73595 20.5241 7.95138 20.831 8.07866C21.138 8.20594 21.4758 8.23934 21.8017 8.17465C22.1276 8.10996 22.4271 7.95007 22.6621 7.71521C22.8972 7.48036 23.0573 7.18107 23.1223 6.85521C23.1872 6.52935 23.1541 6.19154 23.0271 5.88451C22.9 5.57748 22.6848 5.31502 22.4086 5.1303C22.1324 4.94559 21.8076 4.84693 21.4753 4.8468H21.4746C21.0292 4.84701 20.6021 5.02398 20.2871 5.33885C19.972 5.65372 19.7949 6.08074 19.7945 6.52613V6.52613ZM8.34446 25.3957C6.97944 25.3335 6.23751 25.1061 5.74446 24.9141C5.09079 24.6596 4.6244 24.3565 4.13403 23.8669C3.64367 23.3772 3.34013 22.9113 3.08678 22.2576C2.89457 21.7648 2.6672 21.0227 2.60515 19.6578C2.53727 18.1821 2.52372 17.7388 2.52372 14.0001C2.52372 10.2614 2.53839 9.81938 2.60515 8.34243C2.66731 6.97749 2.89637 6.23683 3.08678 5.74258C3.34125 5.08894 3.64434 4.62258 4.13403 4.13224C4.62373 3.6419 5.08967 3.33838 5.74446 3.08504C6.23729 2.89285 6.97944 2.66549 8.34446 2.60344C9.82025 2.53557 10.2636 2.52202 14.0008 2.52202C17.738 2.52202 18.1817 2.53669 19.6588 2.60344C21.0238 2.6656 21.7645 2.89464 22.2588 3.08504C22.9124 3.33838 23.3788 3.64258 23.8692 4.13224C24.3595 4.6219 24.662 5.08894 24.9164 5.74258C25.1086 6.23538 25.336 6.97749 25.3981 8.34243C25.4659 9.81938 25.4795 10.2614 25.4795 14.0001C25.4795 17.7388 25.4659 18.1808 25.3981 19.6578C25.3359 21.0227 25.1074 21.7646 24.9164 22.2576C24.662 22.9113 24.3589 23.3776 23.8692 23.8669C23.3795 24.3561 22.9124 24.6596 22.2588 24.9141C21.7659 25.1063 21.0238 25.3336 19.6588 25.3957C18.183 25.4635 17.7396 25.4771 14.0008 25.4771C10.2619 25.4771 9.8198 25.4635 8.34446 25.3957V25.3957ZM8.22853 0.084784C6.73807 0.152656 5.71959 0.388976 4.83015 0.735056C3.90901 1.09245 3.12923 1.57192 2.35 2.34987C1.57077 3.12782 1.09251 3.9088 0.735096 4.82989C0.388997 5.71984 0.152664 6.7377 0.0847886 8.22808C0.0157929 9.72082 0 10.198 0 14C0 17.802 0.0157929 18.2792 0.0847886 19.7719C0.152664 21.2624 0.388997 22.2802 0.735096 23.1701C1.09251 24.0906 1.57089 24.8725 2.35 25.6501C3.12912 26.4277 3.90901 26.9065 4.83015 27.2649C5.72127 27.611 6.73807 27.8473 8.22853 27.9152C9.72213 27.9831 10.1986 28 14.0008 28C17.8029 28 18.2802 27.9842 19.773 27.9152C21.2636 27.8473 22.2814 27.611 23.1714 27.2649C24.092 26.9065 24.8723 26.4281 25.6515 25.6501C26.4308 24.8722 26.908 24.0906 27.2664 23.1701C27.6125 22.2802 27.85 21.2623 27.9167 19.7719C27.9846 18.2781 28.0004 17.802 28.0004 14C28.0004 10.198 27.9846 9.72082 27.9167 8.22808C27.8489 6.73758 27.6125 5.71928 27.2664 4.82989C26.908 3.90936 26.4295 3.12906 25.6515 2.34987C24.8735 1.57069 24.092 1.09245 23.1725 0.735056C22.2814 0.388976 21.2635 0.151536 19.7741 0.084784C18.2813 0.016912 17.804 0 14.0019 0C10.1997 0 9.72213 0.015792 8.22853 0.084784Z" fill="url(#paint1_radial_19057_24766)"/>
<defs>
<radialGradient id="paint0_radial_19057_24766" cx="0" cy="0" r="1" gradientUnits="userSpaceOnUse" gradientTransform="translate(3.72017 28.1323) scale(36.5536 36.5516)">
<stop offset="0.09" stop-color="#FA8F21"/>
<stop offset="0.78" stop-color="#D82D7E"/>
</radialGradient>
<radialGradient id="paint1_radial_19057_24766" cx="0" cy="0" r="1" gradientUnits="userSpaceOnUse" gradientTransform="translate(16.9817 29.3867) scale(28.8093 28.8077)">
<stop offset="0.64" stop-color="#8C3AAA" stop-opacity="0"/>
<stop offset="1" stop-color="#8C3AAA"/>
</radialGradient>
</defs>
</svg>
