<svg width="70" height="70" viewBox="0 0 70 70" fill="none" xmlns="http://www.w3.org/2000/svg">
<rect width="70" height="70" rx="35" fill="#D74575"/>
<path d="M38.3333 35.7866L39.5333 40.9599L35 38.2266L30.4667 40.9599L31.6667 35.7999L27.6667 32.3466L32.9467 31.8933L35 27.0266L37.0533 31.8799L42.3333 32.3333L38.3333 35.7866ZM35 23.2533L44.3333 27.3999V33.6666C44.3333 39.6933 40.36 45.2533 35 46.9066C29.64 45.2533 25.6667 39.6933 25.6667 33.6666V27.3999L35 23.2533ZM35 20.3333L23 25.6666V33.6666C23 41.0666 28.12 47.9866 35 49.6666C41.88 47.9866 47 41.0666 47 33.6666V25.6666L35 20.3333Z" fill="white"/>
</svg>
