<svg width="70" height="70" viewBox="0 0 70 70" fill="none" xmlns="http://www.w3.org/2000/svg">
<rect width="70" height="70" rx="35" fill="#857F17"/>
<path d="M27.2708 30.3357H23.2708C22.5375 30.3357 21.9375 29.7357 21.9375 29.0023C21.9375 28.269 22.5375 27.669 23.2708 27.669H27.2708C28.0042 27.669 28.6042 28.269 28.6042 29.0023C28.6042 29.7357 28.0042 30.3357 27.2708 30.3357ZM27.2708 34.3357H23.2708C22.5375 34.3357 21.9375 34.9357 21.9375 35.669C21.9375 36.4023 22.5375 37.0023 23.2708 37.0023H27.2708C28.0042 37.0023 28.6042 36.4023 28.6042 35.669C28.6042 34.9357 28.0042 34.3357 27.2708 34.3357ZM45.7775 42.7223L41.6175 38.5623C40.4708 39.309 39.0975 39.7357 37.6175 39.6557C34.4575 39.509 31.7508 37.0423 31.3242 33.909C30.7375 29.4423 34.5908 25.669 39.0975 26.429C41.6975 26.869 43.8575 28.8957 44.4308 31.469C44.8708 33.4157 44.4442 35.229 43.4975 36.669L47.6708 40.8423C48.1908 41.3623 48.1908 42.2023 47.6708 42.7223C47.1508 43.2423 46.2975 43.2423 45.7775 42.7223ZM41.9375 33.0023C41.9375 30.8023 40.1375 29.0023 37.9375 29.0023C35.7375 29.0023 33.9375 30.8023 33.9375 33.0023C33.9375 35.2023 35.7375 37.0023 37.9375 37.0023C40.1375 37.0023 41.9375 35.2023 41.9375 33.0023ZM23.2708 43.669H33.9375C34.6708 43.669 35.2708 43.069 35.2708 42.3357C35.2708 41.6023 34.6708 41.0023 33.9375 41.0023H23.2708C22.5375 41.0023 21.9375 41.6023 21.9375 42.3357C21.9375 43.069 22.5375 43.669 23.2708 43.669Z" fill="white"/>
</svg>
