<svg width="70" height="70" viewBox="0 0 70 70" fill="none" xmlns="http://www.w3.org/2000/svg">
<rect width="70" height="70" rx="35" fill="#2F588E"/>
<path d="M45.6673 29.6666H41.6673V24.3333H23.0007C21.534 24.3333 20.334 25.5333 20.334 26.9999V41.6666H23.0007C23.0007 43.8799 24.7873 45.6666 27.0007 45.6666C29.214 45.6666 31.0007 43.8799 31.0007 41.6666H39.0006C39.0006 43.8799 40.7873 45.6666 43.0006 45.6666C45.214 45.6666 47.0006 43.8799 47.0006 41.6666H49.6673V34.9999L45.6673 29.6666ZM45.0006 31.6666L47.614 34.9999H41.6673V31.6666H45.0006ZM27.0007 42.9999C26.2673 42.9999 25.6673 42.3999 25.6673 41.6666C25.6673 40.9333 26.2673 40.3333 27.0007 40.3333C27.734 40.3333 28.334 40.9333 28.334 41.6666C28.334 42.3999 27.734 42.9999 27.0007 42.9999ZM29.9607 38.9999C29.2273 38.1866 28.1873 37.6666 27.0007 37.6666C25.814 37.6666 24.774 38.1866 24.0407 38.9999H23.0007V26.9999H39.0006V38.9999H29.9607ZM43.0006 42.9999C42.2673 42.9999 41.6673 42.3999 41.6673 41.6666C41.6673 40.9333 42.2673 40.3333 43.0006 40.3333C43.734 40.3333 44.334 40.9333 44.334 41.6666C44.334 42.3999 43.734 42.9999 43.0006 42.9999Z" fill="white"/>
</svg>
