<svg width="36" height="26" viewBox="0 0 36 26" fill="none" xmlns="http://www.w3.org/2000/svg">
<path d="M35.0701 4.40341C34.662 2.86932 33.4549 1.65909 31.919 1.24432C29.142 0.5 18 0.5 18 0.5C18 0.5 6.86364 0.5 4.08097 1.24432C2.55079 1.65341 1.34364 2.86364 0.929924 4.40341C0.1875 7.1875 0.1875 13 0.1875 13C0.1875 13 0.1875 18.8125 0.929924 21.5966C1.33797 23.1307 2.54512 24.3409 4.08097 24.7557C6.86364 25.5 18 25.5 18 25.5C18 25.5 29.142 25.5 31.919 24.7557C33.4492 24.3466 34.6564 23.1364 35.0701 21.5966C35.8125 18.8125 35.8125 13 35.8125 13C35.8125 13 35.8125 7.1875 35.0701 4.40341Z" fill="#FF3000"/>
<path d="M14.4409 18.358L23.6957 13L14.4409 7.64205V18.358Z" fill="white"/>
</svg>
